<?xml version="1.0" encoding="UTF-8"?>
<svg xmlns="http://www.w3.org/2000/svg" xmlns:xlink="http://www.w3.org/1999/xlink" width="300px" height="46px" viewBox="0 0 300 46" version="1.1">
<g id="surface1">
<path style=" stroke:none;fill-rule:nonzero;fill:rgb(50.196078%,50.980392%,52.156863%);fill-opacity:1;" d="M 26.832031 34.6875 L 13.613281 34.6875 L 11.519531 40.859375 L 1.703125 40.859375 L 15.183594 5.207031 L 25.261719 5.207031 L 38.808594 40.859375 L 28.992188 40.859375 Z M 24.34375 27.597656 L 20.222656 15.777344 L 16.035156 27.597656 Z M 24.34375 27.597656 "/>
<path style=" stroke:none;fill-rule:nonzero;fill:rgb(50.196078%,50.980392%,52.156863%);fill-opacity:1;" d="M 40.574219 40.859375 L 40.574219 5.207031 L 49.804688 5.207031 L 66.886719 27.003906 L 66.886719 5.207031 L 76.046875 5.207031 L 76.046875 40.859375 L 66.886719 40.859375 L 49.804688 19.0625 L 49.804688 40.859375 Z M 40.574219 40.859375 "/>
<path style=" stroke:none;fill-rule:nonzero;fill:rgb(50.196078%,50.980392%,52.156863%);fill-opacity:1;" d="M 90.445312 5.207031 L 90.445312 40.859375 L 81.21875 40.859375 L 81.21875 5.207031 Z M 90.445312 5.207031 "/>
<path style=" stroke:none;fill-rule:nonzero;fill:rgb(50.196078%,50.980392%,52.156863%);fill-opacity:1;" d="M 94.042969 40.859375 L 100.066406 5.207031 L 109.226562 5.207031 L 116.359375 24.183594 L 123.429688 5.207031 L 132.589844 5.207031 L 138.613281 40.859375 L 129.449219 40.859375 L 126.308594 20.308594 L 117.933594 40.792969 L 114.265625 40.792969 L 106.28125 20.308594 L 103.207031 40.792969 L 94.042969 40.792969 Z M 94.042969 40.859375 "/>
<path style=" stroke:none;fill-rule:nonzero;fill:rgb(50.196078%,50.980392%,52.156863%);fill-opacity:1;" d="M 140.574219 23 C 140.574219 20.375 141.035156 17.878906 142.015625 15.582031 C 142.996094 13.28125 144.371094 11.3125 146.074219 9.605469 C 147.773438 7.898438 149.867188 6.585938 152.289062 5.601562 C 154.710938 4.617188 157.328125 4.15625 160.210938 4.15625 C 163.089844 4.15625 165.707031 4.617188 168.128906 5.601562 C 170.550781 6.585938 172.644531 7.898438 174.34375 9.605469 C 176.046875 11.3125 177.421875 13.28125 178.402344 15.582031 C 179.386719 17.878906 179.84375 20.308594 179.84375 23 C 179.84375 25.691406 179.386719 28.121094 178.402344 30.417969 C 177.421875 32.71875 176.046875 34.6875 174.34375 36.394531 C 172.644531 38.101562 170.550781 39.414062 168.128906 40.398438 C 165.707031 41.382812 163.089844 41.84375 160.210938 41.84375 C 157.328125 41.84375 154.648438 41.382812 152.289062 40.398438 C 149.933594 39.414062 147.839844 38.101562 146.074219 36.394531 C 144.371094 34.6875 142.996094 32.71875 142.015625 30.417969 C 141.035156 28.121094 140.574219 25.691406 140.574219 23 Z M 150.195312 23 C 150.195312 24.445312 150.457031 25.757812 150.980469 26.9375 C 151.503906 28.121094 152.226562 29.171875 153.140625 30.089844 C 154.058594 30.945312 155.105469 31.667969 156.347656 32.125 C 157.527344 32.585938 158.835938 32.847656 160.210938 32.847656 C 161.582031 32.847656 162.828125 32.585938 164.070312 32.125 C 165.25 31.667969 166.359375 30.945312 167.277344 30.089844 C 168.195312 29.238281 168.914062 28.1875 169.4375 26.9375 C 169.960938 25.757812 170.222656 24.445312 170.222656 23 C 170.222656 21.554688 169.960938 20.242188 169.4375 19.0625 C 168.914062 17.878906 168.195312 16.828125 167.277344 15.910156 C 166.359375 15.054688 165.3125 14.332031 164.070312 13.875 C 162.894531 13.414062 161.582031 13.152344 160.210938 13.152344 C 158.835938 13.152344 157.589844 13.414062 156.347656 13.875 C 155.171875 14.332031 154.058594 15.054688 153.140625 15.910156 C 152.226562 16.761719 151.503906 17.8125 150.980469 19.0625 C 150.457031 20.308594 150.195312 21.621094 150.195312 23 Z M 150.195312 23 "/>
<path style=" stroke:none;fill-rule:nonzero;fill:rgb(50.196078%,50.980392%,52.156863%);fill-opacity:1;" d="M 196.597656 13.085938 L 196.597656 40.859375 L 187.367188 40.859375 L 187.367188 13.085938 L 179.777344 13.085938 L 179.777344 5.207031 L 204.1875 5.207031 L 204.1875 13.085938 Z M 196.597656 13.085938 "/>
<path style=" stroke:none;fill-rule:nonzero;fill:rgb(50.196078%,50.980392%,52.156863%);fill-opacity:1;" d="M 215.25 5.207031 L 215.25 40.859375 L 206.019531 40.859375 L 206.019531 5.207031 Z M 215.25 5.207031 "/>
<path style=" stroke:none;fill-rule:nonzero;fill:rgb(50.196078%,50.980392%,52.156863%);fill-opacity:1;" d="M 218.78125 23 C 218.78125 20.375 219.242188 17.878906 220.222656 15.582031 C 221.203125 13.28125 222.578125 11.3125 224.28125 9.605469 C 225.980469 7.898438 228.074219 6.585938 230.496094 5.601562 C 232.917969 4.617188 235.535156 4.15625 238.417969 4.15625 C 241.296875 4.15625 243.914062 4.617188 246.335938 5.601562 C 248.757812 6.585938 250.851562 7.898438 252.550781 9.605469 C 254.253906 11.3125 255.628906 13.28125 256.609375 15.582031 C 257.589844 17.878906 258.050781 20.308594 258.050781 23 C 258.050781 25.691406 257.589844 28.121094 256.609375 30.417969 C 255.628906 32.71875 254.253906 34.6875 252.550781 36.394531 C 250.851562 38.101562 248.757812 39.414062 246.335938 40.398438 C 243.914062 41.382812 241.296875 41.84375 238.417969 41.84375 C 235.535156 41.84375 232.851562 41.382812 230.496094 40.398438 C 228.140625 39.414062 226.046875 38.101562 224.28125 36.394531 C 222.578125 34.6875 221.203125 32.71875 220.222656 30.417969 C 219.304688 28.121094 218.78125 25.691406 218.78125 23 Z M 228.46875 23 C 228.46875 24.445312 228.730469 25.757812 229.253906 26.9375 C 229.777344 28.121094 230.496094 29.171875 231.414062 30.089844 C 232.328125 30.945312 233.378906 31.667969 234.621094 32.125 C 235.796875 32.585938 237.105469 32.847656 238.480469 32.847656 C 239.855469 32.847656 241.097656 32.585938 242.34375 32.125 C 243.519531 31.667969 244.632812 30.945312 245.550781 30.089844 C 246.464844 29.238281 247.1875 28.1875 247.710938 26.9375 C 248.234375 25.757812 248.496094 24.445312 248.496094 23 C 248.496094 21.554688 248.234375 20.242188 247.710938 19.0625 C 247.1875 17.878906 246.464844 16.828125 245.550781 15.910156 C 244.632812 15.054688 243.585938 14.332031 242.34375 13.875 C 241.164062 13.414062 239.855469 13.152344 238.480469 13.152344 C 237.105469 13.152344 235.863281 13.414062 234.621094 13.875 C 233.441406 14.332031 232.328125 15.054688 231.414062 15.910156 C 230.496094 16.761719 229.777344 17.8125 229.253906 19.0625 C 228.730469 20.308594 228.46875 21.621094 228.46875 23 Z M 228.46875 23 "/>
<path style=" stroke:none;fill-rule:nonzero;fill:rgb(50.196078%,50.980392%,52.156863%);fill-opacity:1;" d="M 261.714844 40.859375 L 261.714844 5.207031 L 270.941406 5.207031 L 288.023438 27.003906 L 288.023438 5.207031 L 297.1875 5.207031 L 297.1875 40.859375 L 288.023438 40.859375 L 270.941406 19.0625 L 270.941406 40.859375 Z M 261.714844 40.859375 "/>
<path style=" stroke:none;fill-rule:nonzero;fill:rgb(50.196078%,50.980392%,52.156863%);fill-opacity:1;" d="M 165.511719 22.867188 C 165.511719 25.84375 163.109375 28.253906 160.144531 28.253906 C 157.179688 28.253906 154.777344 25.84375 154.777344 22.867188 C 154.777344 19.894531 157.179688 17.484375 160.144531 17.484375 C 163.109375 17.484375 165.511719 19.894531 165.511719 22.867188 Z M 165.511719 22.867188 "/>
<path style=" stroke:none;fill-rule:nonzero;fill:rgb(50.196078%,50.980392%,52.156863%);fill-opacity:1;" d="M 243.324219 22.867188 C 243.324219 25.84375 240.921875 28.253906 237.957031 28.253906 C 234.996094 28.253906 232.589844 25.84375 232.589844 22.867188 C 232.589844 19.894531 234.996094 17.484375 237.957031 17.484375 C 240.921875 17.484375 243.324219 19.894531 243.324219 22.867188 Z M 243.324219 22.867188 "/>
</g>
</svg>
