<?xml version="1.0" encoding="UTF-8"?>
<svg xmlns="http://www.w3.org/2000/svg" xmlns:xlink="http://www.w3.org/1999/xlink" width="250px" height="64px" viewBox="0 0 249 64" version="1.1">
<g id="surface1">
<path style=" stroke:none;fill-rule:nonzero;fill:rgb(96.862745%,96.862745%,96.862745%);fill-opacity:1;" d="M 39.523438 27.875 L 35.199219 62.917969 L 26.953125 62.917969 L 27.492188 59.128906 C 23.976562 62.242188 20.328125 63.730469 16.539062 63.730469 C 11.945312 63.730469 8.15625 62.105469 5.183594 58.992188 C 2.210938 55.882812 0.722656 51.824219 0.722656 46.816406 C 0.722656 40.996094 2.34375 36.261719 5.722656 32.609375 C 9.105469 28.957031 13.429688 27.0625 18.839844 27.0625 C 21.40625 27.0625 23.4375 27.46875 25.195312 28.277344 C 26.953125 29.089844 28.84375 30.578125 30.601562 32.472656 L 31.144531 27.875 Z M 29.519531 44.378906 C 29.519531 41.269531 28.574219 38.699219 26.816406 36.804688 C 25.058594 34.910156 22.761719 33.828125 19.921875 33.828125 C 16.8125 33.828125 14.242188 35.042969 12.214844 37.480469 C 10.1875 39.914062 9.105469 42.890625 9.105469 46.410156 C 9.105469 49.523438 9.914062 51.957031 11.671875 53.988281 C 13.429688 56.015625 15.59375 56.964844 18.433594 56.964844 C 21.40625 56.964844 24.113281 55.746094 26.273438 53.3125 C 28.304688 50.738281 29.519531 47.761719 29.519531 44.378906 Z M 29.519531 44.378906 "/>
<path style=" stroke:none;fill-rule:nonzero;fill:rgb(96.862745%,96.862745%,96.862745%);fill-opacity:1;" d="M 52.371094 27.875 L 52.097656 31.121094 C 55.34375 28.414062 58.589844 27.0625 61.96875 27.0625 C 65.347656 27.0625 68.1875 28.007812 70.214844 29.902344 C 72.246094 31.796875 73.191406 34.367188 73.191406 37.75 C 73.191406 39.507812 73.054688 41.675781 72.785156 44.109375 L 70.488281 62.917969 L 62.238281 62.917969 L 64.808594 42.214844 C 64.941406 41.402344 64.941406 40.726562 65.078125 40.1875 C 65.078125 39.644531 65.078125 39.105469 65.078125 38.5625 C 65.078125 35.449219 63.320312 33.828125 59.941406 33.828125 C 57.777344 33.828125 56.019531 34.503906 54.53125 35.722656 C 53.316406 36.804688 52.371094 38.019531 51.828125 39.507812 C 51.558594 40.320312 51.289062 41.132812 51.015625 42.214844 C 50.746094 43.296875 50.339844 44.652344 50.207031 46.003906 L 48.179688 62.917969 L 39.929688 62.917969 L 44.257812 27.875 Z M 52.371094 27.875 "/>
<path style=" stroke:none;fill-rule:nonzero;fill:rgb(96.862745%,96.862745%,96.862745%);fill-opacity:1;" d="M 87.65625 27.875 L 83.332031 62.917969 L 75.082031 62.917969 L 79.410156 27.875 Z M 90.226562 14.34375 C 90.226562 15.558594 89.820312 16.507812 88.875 17.453125 C 88.0625 18.265625 86.980469 18.808594 85.765625 18.808594 C 84.546875 18.808594 83.464844 18.402344 82.65625 17.453125 C 81.84375 16.507812 81.304688 15.425781 81.304688 14.207031 C 81.304688 12.988281 81.707031 11.90625 82.519531 11.09375 C 83.332031 10.285156 84.414062 9.742188 85.628906 9.742188 C 86.847656 9.742188 87.925781 10.148438 88.738281 11.09375 C 89.683594 12.042969 90.226562 13.125 90.226562 14.34375 Z M 90.226562 14.34375 "/>
<path style=" stroke:none;fill-rule:nonzero;fill:rgb(96.862745%,96.862745%,96.862745%);fill-opacity:1;" d="M 104.015625 0 L 100.230469 31.121094 C 102.394531 29.496094 104.289062 28.414062 105.910156 27.875 C 107.53125 27.332031 109.425781 27.0625 111.316406 27.0625 C 116.050781 27.0625 119.972656 28.683594 123.082031 31.933594 C 126.191406 35.179688 127.675781 39.375 127.675781 44.378906 C 127.675781 49.929688 125.917969 54.527344 122.40625 58.183594 C 118.890625 61.96875 114.5625 63.730469 109.425781 63.730469 C 104.691406 63.730469 100.5 61.835938 96.851562 58.183594 L 96.308594 62.917969 L 88.0625 62.917969 L 95.769531 0 Z M 119.429688 44.515625 C 119.429688 41.402344 118.484375 38.832031 116.589844 36.804688 C 114.699219 34.773438 112.265625 33.828125 109.289062 33.828125 C 106.042969 33.828125 103.339844 35.042969 101.3125 37.34375 C 99.148438 39.644531 98.203125 42.757812 98.203125 46.410156 C 98.203125 49.523438 99.148438 51.957031 100.90625 53.851562 C 102.664062 55.746094 105.097656 56.695312 107.9375 56.695312 C 111.183594 56.695312 113.886719 55.476562 116.050781 53.039062 C 118.214844 50.875 119.429688 47.898438 119.429688 44.515625 Z M 119.429688 44.515625 "/>
<path style=" stroke:none;fill-rule:nonzero;fill:rgb(96.862745%,96.862745%,96.862745%);fill-opacity:1;" d="M 149.714844 64 C 146.066406 64 142.820312 63.1875 139.980469 61.566406 C 137.140625 59.941406 134.84375 57.640625 133.21875 54.800781 C 131.597656 51.957031 130.785156 48.710938 130.785156 45.058594 C 130.785156 41.402344 131.597656 38.15625 133.21875 35.316406 C 134.84375 32.472656 137.140625 30.171875 139.980469 28.550781 C 142.820312 26.925781 146.066406 26.113281 149.714844 26.113281 C 153.367188 26.113281 156.609375 26.925781 159.449219 28.550781 C 162.289062 30.171875 164.585938 32.472656 166.210938 35.316406 C 167.832031 38.15625 168.644531 41.402344 168.644531 45.058594 C 168.644531 48.710938 167.832031 51.957031 166.210938 54.800781 C 164.585938 57.640625 162.289062 59.941406 159.449219 61.566406 C 156.609375 63.1875 153.367188 64 149.714844 64 Z M 133.761719 44.921875 L 149.714844 44.921875 L 149.714844 28.957031 C 146.742188 28.957031 143.902344 29.632812 141.601562 30.984375 C 139.167969 32.339844 137.277344 34.234375 135.925781 36.667969 C 134.4375 39.105469 133.761719 41.808594 133.761719 44.921875 Z M 133.761719 44.921875 "/>
<path style=" stroke:none;fill-rule:nonzero;fill:rgb(96.862745%,96.862745%,96.862745%);fill-opacity:1;" d="M 191.085938 64 C 187.4375 64 184.191406 63.1875 181.351562 61.566406 C 178.511719 59.941406 176.214844 57.640625 174.59375 54.800781 C 172.96875 51.957031 172.160156 48.710938 172.160156 45.058594 C 172.160156 41.402344 172.96875 38.15625 174.59375 35.316406 C 176.214844 32.472656 178.511719 30.171875 181.351562 28.550781 C 184.191406 26.925781 187.4375 26.113281 191.085938 26.113281 C 194.738281 26.113281 197.984375 26.925781 200.820312 28.550781 C 203.660156 30.171875 205.960938 32.472656 207.582031 35.316406 C 209.203125 38.15625 210.015625 41.402344 210.015625 45.058594 C 210.015625 48.710938 209.203125 51.957031 207.582031 54.800781 C 205.960938 57.640625 203.660156 59.941406 200.820312 61.566406 C 197.984375 63.1875 194.738281 64 191.085938 64 Z M 175 44.921875 L 190.953125 44.921875 L 190.953125 28.957031 C 187.976562 28.957031 185.136719 29.632812 182.839844 30.984375 C 180.40625 32.339844 178.511719 34.234375 177.160156 36.667969 C 175.808594 39.105469 175 41.808594 175 44.921875 Z M 175 44.921875 "/>
<path style=" stroke:none;fill-rule:nonzero;fill:rgb(96.862745%,96.862745%,96.862745%);fill-opacity:1;" d="M 227.726562 0.945312 L 222.589844 42.351562 L 237.328125 28.820312 L 248.277344 28.820312 L 229.890625 44.785156 L 244.628906 63.863281 L 234.621094 63.863281 L 221.914062 47.222656 L 219.886719 63.863281 L 211.636719 63.863281 L 219.34375 0.945312 Z M 227.726562 0.945312 "/>
</g>
</svg>
