<?xml version="1.0" encoding="UTF-8"?>
<svg xmlns="http://www.w3.org/2000/svg" xmlns:xlink="http://www.w3.org/1999/xlink" width="300px" height="72px" viewBox="0 0 303 72" version="1.1">
<g id="surface1">
<path style=" stroke:none;fill-rule:nonzero;fill:rgb(100%,100%,100%);fill-opacity:1;" d="M 46.199219 30.902344 L 41.484375 69.867188 L 32.359375 69.867188 L 32.96875 65.605469 C 29.015625 68.957031 25.0625 70.78125 20.804688 70.78125 C 15.632812 70.78125 11.527344 69.109375 8.183594 65.605469 C 4.992188 62.105469 3.316406 57.539062 3.316406 52.058594 C 3.316406 45.664062 5.140625 40.339844 8.945312 36.226562 C 12.746094 32.117188 17.613281 30.140625 23.390625 30.140625 C 26.125 30.140625 28.558594 30.597656 30.535156 31.507812 C 32.511719 32.421875 34.488281 33.945312 36.617188 36.226562 L 37.226562 31.054688 L 46.199219 31.054688 Z M 35.097656 49.167969 C 35.097656 45.664062 34.035156 42.925781 32.058594 40.796875 C 30.082031 38.664062 27.496094 37.597656 24.300781 37.597656 C 20.957031 37.597656 18.066406 38.96875 15.785156 41.554688 C 13.503906 44.296875 12.289062 47.492188 12.289062 51.449219 C 12.289062 54.800781 13.203125 57.691406 15.179688 59.824219 C 17.15625 61.953125 19.589844 63.019531 22.628906 63.019531 C 25.976562 63.019531 28.863281 61.648438 31.296875 58.910156 C 33.730469 56.320312 35.097656 52.972656 35.097656 49.167969 Z M 35.097656 49.167969 "/>
<path style=" stroke:none;fill-rule:nonzero;fill:rgb(100%,100%,100%);fill-opacity:1;" d="M 67.941406 30.902344 L 67.488281 34.554688 C 71.136719 31.507812 74.785156 29.988281 78.433594 29.988281 C 82.238281 29.988281 85.277344 31.054688 87.558594 33.183594 C 89.839844 35.316406 90.902344 38.207031 90.902344 41.859375 C 90.902344 43.839844 90.753906 46.273438 90.449219 49.015625 L 87.863281 69.867188 L 78.738281 69.867188 L 81.476562 47.035156 C 81.628906 46.121094 81.628906 45.363281 81.628906 44.753906 C 81.628906 44.144531 81.628906 43.535156 81.628906 42.925781 C 81.628906 39.425781 79.804688 37.597656 76.003906 37.597656 C 73.722656 37.597656 71.59375 38.359375 69.921875 39.730469 C 68.550781 40.796875 67.488281 42.164062 66.878906 43.839844 C 66.574219 44.601562 66.269531 45.664062 65.964844 46.882812 C 65.664062 48.101562 65.511719 49.472656 65.359375 50.992188 L 63.230469 69.867188 L 54.105469 69.867188 L 58.820312 30.902344 Z M 67.941406 30.902344 "/>
<path style=" stroke:none;fill-rule:nonzero;fill:rgb(100%,100%,100%);fill-opacity:1;" d="M 114.472656 30.902344 L 109.757812 69.867188 L 100.636719 69.867188 L 105.351562 30.902344 Z M 117.363281 15.832031 C 117.363281 17.199219 116.90625 18.265625 115.84375 19.332031 C 114.929688 20.246094 113.714844 20.855469 112.34375 20.855469 C 110.976562 20.855469 109.757812 20.398438 108.847656 19.332031 C 107.933594 18.265625 107.328125 17.046875 107.328125 15.679688 C 107.328125 14.308594 107.78125 13.242188 108.695312 12.175781 C 109.609375 11.265625 110.824219 10.65625 112.191406 10.65625 C 113.5625 10.65625 114.777344 11.113281 115.691406 12.175781 C 116.90625 13.394531 117.363281 14.460938 117.363281 15.832031 Z M 117.363281 15.832031 "/>
<path style=" stroke:none;fill-rule:nonzero;fill:rgb(100%,100%,100%);fill-opacity:1;" d="M 140.171875 0 L 135.914062 34.402344 C 138.347656 32.574219 140.324219 31.355469 142.148438 30.75 C 143.972656 30.140625 145.949219 29.835938 148.078125 29.835938 C 153.402344 29.835938 157.660156 31.660156 161.15625 35.316406 C 164.652344 38.96875 166.324219 43.535156 166.324219 49.167969 C 166.324219 55.253906 164.347656 60.429688 160.394531 64.542969 C 156.441406 68.652344 151.726562 70.78125 145.949219 70.78125 C 140.628906 70.78125 136.066406 68.804688 132.113281 64.695312 L 131.65625 69.867188 L 122.53125 69.867188 L 131.046875 0 Z M 157.203125 49.472656 C 157.203125 45.96875 156.136719 43.230469 154.160156 40.945312 C 152.03125 38.816406 149.445312 37.597656 146.101562 37.597656 C 142.453125 37.597656 139.5625 38.96875 137.28125 41.554688 C 135 44.144531 133.785156 47.492188 133.785156 51.601562 C 133.785156 55.105469 134.847656 57.84375 136.828125 59.976562 C 138.804688 62.105469 141.386719 63.171875 144.734375 63.171875 C 148.230469 63.171875 151.273438 61.800781 153.703125 59.214844 C 155.984375 56.472656 157.203125 53.277344 157.203125 49.472656 Z M 157.203125 49.472656 "/>
<path style=" stroke:none;fill-rule:nonzero;fill:rgb(100%,100%,100%);fill-opacity:1;" d="M 190.960938 70.933594 C 187.007812 70.933594 183.355469 70.019531 180.164062 68.195312 C 176.96875 66.367188 174.386719 63.78125 172.558594 60.582031 C 170.734375 57.386719 169.824219 53.734375 169.824219 49.777344 C 169.824219 45.664062 170.734375 42.164062 172.558594 38.96875 C 174.386719 35.773438 176.96875 33.335938 180.164062 31.355469 C 183.355469 29.53125 187.007812 28.617188 190.960938 28.617188 C 195.066406 28.617188 198.5625 29.53125 201.753906 31.355469 C 204.949219 33.183594 207.382812 35.773438 209.359375 38.96875 C 211.183594 42.164062 212.097656 45.816406 212.097656 49.777344 C 212.097656 53.734375 211.183594 57.386719 209.359375 60.582031 C 207.535156 63.78125 204.949219 66.367188 201.753906 68.195312 C 198.5625 70.019531 194.914062 70.933594 190.960938 70.933594 Z M 173.167969 49.777344 L 190.960938 49.777344 L 190.960938 32.117188 C 187.613281 32.117188 184.574219 32.878906 181.835938 34.402344 C 179.097656 35.925781 176.96875 38.054688 175.449219 40.796875 C 173.929688 43.382812 173.167969 46.425781 173.167969 49.777344 Z M 173.167969 49.777344 "/>
<path style=" stroke:none;fill-rule:nonzero;fill:rgb(100%,100%,100%);fill-opacity:1;" d="M 236.730469 70.933594 C 232.777344 70.933594 229.125 70.019531 225.933594 68.195312 C 222.738281 66.367188 220.15625 63.78125 218.332031 60.582031 C 216.503906 57.386719 215.59375 53.734375 215.59375 49.777344 C 215.59375 45.664062 216.503906 42.164062 218.332031 38.96875 C 220.15625 35.773438 222.738281 33.335938 225.933594 31.355469 C 229.125 29.53125 232.777344 28.617188 236.730469 28.617188 C 240.835938 28.617188 244.332031 29.53125 247.527344 31.355469 C 250.71875 33.183594 253.152344 35.773438 255.128906 38.96875 C 256.953125 42.164062 257.867188 45.816406 257.867188 49.777344 C 257.867188 53.734375 256.953125 57.386719 255.128906 60.582031 C 253.304688 63.78125 250.71875 66.367188 247.527344 68.195312 C 244.332031 70.019531 240.835938 70.933594 236.730469 70.933594 Z M 218.9375 49.777344 L 236.730469 49.777344 L 236.730469 32.117188 C 233.382812 32.117188 230.34375 32.878906 227.605469 34.402344 C 224.867188 35.925781 222.738281 38.054688 221.21875 40.796875 C 219.699219 43.382812 218.9375 46.425781 218.9375 49.777344 Z M 218.9375 49.777344 "/>
<path style=" stroke:none;fill-rule:nonzero;fill:rgb(100%,100%,100%);fill-opacity:1;" d="M 277.328125 1.066406 L 271.703125 47.1875 L 288.125 32.117188 L 300.289062 32.117188 L 279.914062 49.929688 L 296.335938 71.085938 L 285.238281 71.085938 L 271.09375 52.515625 L 268.8125 71.085938 L 259.691406 71.085938 L 268.207031 1.21875 L 277.328125 1.21875 Z M 277.328125 1.066406 "/>
</g>
</svg>
