<?xml version="1.0" encoding="UTF-8"?>
<svg xmlns="http://www.w3.org/2000/svg" xmlns:xlink="http://www.w3.org/1999/xlink" width="300px" height="77px" viewBox="0 0 301 77" version="1.1">
<g id="surface1">
<path style=" stroke:none;fill-rule:nonzero;fill:rgb(5.882353%,5.882353%,5.882353%);fill-opacity:1;" d="M 47.523438 33.535156 L 42.324219 75.699219 L 32.40625 75.699219 L 33.058594 71.140625 C 28.832031 74.882812 24.441406 76.675781 19.890625 76.675781 C 14.363281 76.675781 9.8125 74.722656 6.238281 70.976562 C 2.660156 67.234375 0.875 62.347656 0.875 56.324219 C 0.875 49.324219 2.824219 43.628906 6.886719 39.234375 C 10.953125 34.835938 16.152344 32.558594 22.65625 32.558594 C 25.742188 32.558594 28.179688 33.046875 30.292969 34.023438 C 32.40625 35 34.683594 36.789062 36.796875 39.070312 L 37.445312 33.535156 Z M 35.496094 53.394531 C 35.496094 49.652344 34.359375 46.558594 32.246094 44.277344 C 30.132812 42 27.367188 40.699219 23.957031 40.699219 C 20.214844 40.699219 17.128906 42.164062 14.691406 45.09375 C 12.25 48.023438 10.953125 51.605469 10.953125 55.835938 C 10.953125 59.582031 11.925781 62.511719 14.039062 64.953125 C 16.152344 67.394531 18.753906 68.535156 22.167969 68.535156 C 25.742188 68.535156 28.996094 67.070312 31.59375 64.140625 C 34.035156 61.046875 35.496094 57.464844 35.496094 53.394531 Z M 35.496094 53.394531 "/>
<path style=" stroke:none;fill-rule:nonzero;fill:rgb(5.882353%,5.882353%,5.882353%);fill-opacity:1;" d="M 62.96875 33.535156 L 62.640625 37.441406 C 66.542969 34.1875 70.445312 32.558594 74.507812 32.558594 C 78.570312 32.558594 81.984375 33.699219 84.421875 35.976562 C 86.863281 38.253906 88 41.347656 88 45.417969 C 88 47.535156 87.835938 50.140625 87.511719 53.070312 L 84.75 75.699219 L 74.832031 75.699219 L 77.921875 50.789062 C 78.085938 49.8125 78.085938 49 78.246094 48.347656 C 78.246094 47.699219 78.246094 47.046875 78.246094 46.394531 C 78.246094 42.652344 76.132812 40.699219 72.070312 40.699219 C 69.46875 40.699219 67.355469 41.511719 65.566406 42.976562 C 64.105469 44.277344 62.96875 45.746094 62.316406 47.535156 C 61.992188 48.511719 61.667969 49.488281 61.339844 50.789062 C 61.015625 52.09375 60.527344 53.722656 60.367188 55.347656 L 57.929688 75.699219 L 48.011719 75.699219 L 53.214844 33.535156 Z M 62.96875 33.535156 "/>
<path style=" stroke:none;fill-rule:nonzero;fill:rgb(5.882353%,5.882353%,5.882353%);fill-opacity:1;" d="M 105.390625 33.535156 L 100.191406 75.699219 L 90.277344 75.699219 L 95.476562 33.535156 Z M 108.480469 17.253906 C 108.480469 18.722656 107.992188 19.859375 106.855469 21 C 105.878906 21.976562 104.578125 22.628906 103.117188 22.628906 C 101.652344 22.628906 100.351562 22.140625 99.378906 21 C 98.402344 19.859375 97.753906 18.558594 97.753906 17.09375 C 97.753906 15.628906 98.242188 14.324219 99.214844 13.347656 C 100.191406 12.371094 101.492188 11.722656 102.953125 11.722656 C 104.417969 11.722656 105.71875 12.210938 106.691406 13.347656 C 107.832031 14.488281 108.480469 15.789062 108.480469 17.253906 Z M 108.480469 17.253906 "/>
<path style=" stroke:none;fill-rule:nonzero;fill:rgb(5.882353%,5.882353%,5.882353%);fill-opacity:1;" d="M 125.0625 0 L 120.507812 37.441406 C 123.109375 35.488281 125.386719 34.1875 127.335938 33.535156 C 129.289062 32.882812 131.5625 32.558594 133.839844 32.558594 C 139.527344 32.558594 144.242188 34.511719 147.980469 38.417969 C 151.71875 42.324219 153.507812 47.371094 153.507812 53.394531 C 153.507812 60.070312 151.394531 65.605469 147.167969 70 C 142.941406 74.558594 137.738281 76.675781 131.5625 76.675781 C 125.875 76.675781 120.835938 74.394531 116.445312 70 L 115.796875 75.699219 L 105.878906 75.699219 L 115.144531 0 Z M 143.589844 53.558594 C 143.589844 49.8125 142.453125 46.722656 140.179688 44.277344 C 137.902344 41.835938 134.976562 40.699219 131.402344 40.699219 C 127.5 40.699219 124.25 42.164062 121.808594 44.929688 C 119.210938 47.699219 118.070312 51.441406 118.070312 55.835938 C 118.070312 59.582031 119.210938 62.511719 121.324219 64.789062 C 123.433594 67.070312 126.363281 68.210938 129.773438 68.210938 C 133.675781 68.210938 136.925781 66.746094 139.527344 63.8125 C 142.128906 61.210938 143.589844 57.628906 143.589844 53.558594 Z M 143.589844 53.558594 "/>
<path style=" stroke:none;fill-rule:nonzero;fill:rgb(5.882353%,5.882353%,5.882353%);fill-opacity:1;" d="M 180.003906 77 C 175.613281 77 171.710938 76.023438 168.300781 74.070312 C 164.886719 72.117188 162.121094 69.347656 160.171875 65.929688 C 158.222656 62.511719 157.246094 58.605469 157.246094 54.210938 C 157.246094 49.8125 158.222656 45.90625 160.171875 42.488281 C 162.121094 39.070312 164.886719 36.300781 168.300781 34.347656 C 171.710938 32.394531 175.613281 31.417969 180.003906 31.417969 C 184.390625 31.417969 188.292969 32.394531 191.707031 34.347656 C 195.121094 36.300781 197.882812 39.070312 199.832031 42.488281 C 201.785156 45.90625 202.757812 49.8125 202.757812 54.210938 C 202.757812 58.605469 201.785156 62.511719 199.832031 65.929688 C 197.882812 69.347656 195.121094 72.117188 191.707031 74.070312 C 188.292969 76.023438 184.390625 77 180.003906 77 Z M 160.820312 54.046875 L 180.003906 54.046875 L 180.003906 34.835938 C 176.425781 34.835938 173.011719 35.652344 170.25 37.277344 C 167.324219 38.90625 165.046875 41.1875 163.421875 44.117188 C 161.632812 47.046875 160.820312 50.300781 160.820312 54.046875 Z M 160.820312 54.046875 "/>
<path style=" stroke:none;fill-rule:nonzero;fill:rgb(5.882353%,5.882353%,5.882353%);fill-opacity:1;" d="M 229.742188 77 C 225.355469 77 221.453125 76.023438 218.039062 74.070312 C 214.625 72.117188 211.863281 69.347656 209.910156 65.929688 C 207.960938 62.511719 206.984375 58.605469 206.984375 54.210938 C 206.984375 49.8125 207.960938 45.90625 209.910156 42.488281 C 211.863281 39.070312 214.625 36.300781 218.039062 34.347656 C 221.453125 32.394531 225.355469 31.417969 229.742188 31.417969 C 234.132812 31.417969 238.03125 32.394531 241.445312 34.347656 C 244.859375 36.300781 247.625 39.070312 249.574219 42.488281 C 251.523438 45.90625 252.5 49.8125 252.5 54.210938 C 252.5 58.605469 251.523438 62.511719 249.574219 65.929688 C 247.625 69.347656 244.859375 72.117188 241.445312 74.070312 C 238.03125 76.023438 234.132812 77 229.742188 77 Z M 210.398438 54.046875 L 229.582031 54.046875 L 229.582031 34.835938 C 226.003906 34.835938 222.589844 35.652344 219.828125 37.277344 C 216.902344 38.90625 214.625 41.1875 213 44.117188 C 211.375 47.046875 210.398438 50.300781 210.398438 54.046875 Z M 210.398438 54.046875 "/>
<path style=" stroke:none;fill-rule:nonzero;fill:rgb(5.882353%,5.882353%,5.882353%);fill-opacity:1;" d="M 273.792969 1.140625 L 267.617188 50.953125 L 285.335938 34.675781 L 298.5 34.675781 L 276.394531 53.882812 L 294.113281 76.835938 L 282.082031 76.835938 L 266.804688 56.8125 L 264.367188 76.835938 L 254.449219 76.835938 L 263.714844 1.140625 Z M 273.792969 1.140625 "/>
</g>
</svg>
