<?xml version="1.0" encoding="UTF-8"?>
<svg xmlns="http://www.w3.org/2000/svg" xmlns:xlink="http://www.w3.org/1999/xlink" width="300px" height="72px" viewBox="0 0 303 72" version="1.1">
<g id="surface1">
<path style=" stroke:none;fill-rule:nonzero;fill:rgb(5.882353%,5.882353%,5.882353%);fill-opacity:1;" d="M 44.527344 31.355469 L 39.660156 70.78125 L 30.382812 70.78125 L 30.992188 66.519531 C 27.039062 70.019531 22.933594 71.695312 18.675781 71.695312 C 13.503906 71.695312 9.25 69.867188 5.902344 66.367188 C 2.558594 62.867188 0.886719 58.300781 0.886719 52.667969 C 0.886719 46.121094 2.710938 40.796875 6.511719 36.683594 C 10.3125 32.574219 15.179688 30.445312 21.261719 30.445312 C 24.148438 30.445312 26.429688 30.902344 28.40625 31.8125 C 30.382812 32.726562 32.511719 34.402344 34.488281 36.53125 L 35.097656 31.355469 Z M 33.273438 49.929688 C 33.273438 46.425781 32.210938 43.535156 30.230469 41.402344 C 28.253906 39.273438 25.671875 38.054688 22.476562 38.054688 C 18.980469 38.054688 16.089844 39.425781 13.808594 42.164062 C 11.527344 44.90625 10.3125 48.253906 10.3125 52.210938 C 10.3125 55.710938 11.226562 58.453125 13.203125 60.734375 C 15.179688 63.019531 17.613281 64.085938 20.804688 64.085938 C 24.148438 64.085938 27.191406 62.714844 29.625 59.976562 C 31.90625 57.082031 33.273438 53.734375 33.273438 49.929688 Z M 33.273438 49.929688 "/>
<path style=" stroke:none;fill-rule:nonzero;fill:rgb(5.882353%,5.882353%,5.882353%);fill-opacity:1;" d="M 66.574219 31.355469 L 66.269531 35.011719 C 69.921875 31.964844 73.570312 30.445312 77.371094 30.445312 C 81.171875 30.445312 84.367188 31.507812 86.648438 33.640625 C 88.925781 35.773438 89.992188 38.664062 89.992188 42.46875 C 89.992188 44.449219 89.839844 46.882812 89.535156 49.625 L 86.949219 70.78125 L 77.675781 70.78125 L 80.5625 47.492188 C 80.714844 46.578125 80.714844 45.816406 80.867188 45.210938 C 80.867188 44.601562 80.867188 43.992188 80.867188 43.382812 C 80.867188 39.882812 78.890625 38.054688 75.089844 38.054688 C 72.65625 38.054688 70.679688 38.816406 69.007812 40.1875 C 67.640625 41.402344 66.574219 42.773438 65.964844 44.449219 C 65.664062 45.363281 65.359375 46.273438 65.054688 47.492188 C 64.75 48.710938 64.292969 50.234375 64.140625 51.753906 L 61.859375 70.78125 L 52.585938 70.78125 L 57.449219 31.355469 Z M 66.574219 31.355469 "/>
<path style=" stroke:none;fill-rule:nonzero;fill:rgb(5.882353%,5.882353%,5.882353%);fill-opacity:1;" d="M 113.863281 31.355469 L 109 70.78125 L 99.722656 70.78125 L 104.589844 31.355469 Z M 116.753906 16.136719 C 116.753906 17.503906 116.296875 18.570312 115.234375 19.636719 C 114.320312 20.550781 113.105469 21.160156 111.738281 21.160156 C 110.367188 21.160156 109.152344 20.703125 108.238281 19.636719 C 107.328125 18.570312 106.71875 17.351562 106.71875 15.984375 C 106.71875 14.613281 107.175781 13.394531 108.085938 12.480469 C 109 11.570312 110.214844 10.960938 111.585938 10.960938 C 112.953125 10.960938 114.167969 11.417969 115.082031 12.480469 C 116.144531 13.546875 116.753906 14.765625 116.753906 16.136719 Z M 116.753906 16.136719 "/>
<path style=" stroke:none;fill-rule:nonzero;fill:rgb(5.882353%,5.882353%,5.882353%);fill-opacity:1;" d="M 139.867188 0 L 135.609375 35.011719 C 138.042969 33.183594 140.171875 31.964844 141.996094 31.355469 C 143.820312 30.75 145.949219 30.445312 148.078125 30.445312 C 153.402344 30.445312 157.808594 32.269531 161.308594 35.925781 C 164.804688 39.578125 166.476562 44.296875 166.476562 49.929688 C 166.476562 56.167969 164.5 61.34375 160.546875 65.453125 C 156.59375 69.714844 151.726562 71.695312 145.949219 71.695312 C 140.628906 71.695312 135.914062 69.566406 131.808594 65.453125 L 131.199219 70.78125 L 121.925781 70.78125 L 130.589844 0 Z M 157.203125 50.082031 C 157.203125 46.578125 156.136719 43.6875 154.007812 41.402344 C 151.878906 39.121094 149.144531 38.054688 145.796875 38.054688 C 142.148438 38.054688 139.105469 39.425781 136.828125 42.011719 C 134.394531 44.601562 133.328125 48.101562 133.328125 52.210938 C 133.328125 55.710938 134.394531 58.453125 136.371094 60.582031 C 138.347656 62.714844 141.082031 63.78125 144.277344 63.78125 C 147.925781 63.78125 150.96875 62.410156 153.402344 59.671875 C 155.832031 57.234375 157.203125 53.886719 157.203125 50.082031 Z M 157.203125 50.082031 "/>
<path style=" stroke:none;fill-rule:nonzero;fill:rgb(5.882353%,5.882353%,5.882353%);fill-opacity:1;" d="M 191.261719 72 C 187.15625 72 183.507812 71.085938 180.316406 69.261719 C 177.121094 67.433594 174.535156 64.84375 172.710938 61.648438 C 170.886719 58.453125 169.976562 54.800781 169.976562 50.6875 C 169.976562 46.578125 170.886719 42.925781 172.710938 39.730469 C 174.535156 36.53125 177.121094 33.945312 180.316406 32.117188 C 183.507812 30.292969 187.15625 29.378906 191.261719 29.378906 C 195.371094 29.378906 199.019531 30.292969 202.210938 32.117188 C 205.40625 33.945312 207.988281 36.53125 209.816406 39.730469 C 211.640625 42.925781 212.550781 46.578125 212.550781 50.6875 C 212.550781 54.800781 211.640625 58.453125 209.816406 61.648438 C 207.988281 64.84375 205.40625 67.433594 202.210938 69.261719 C 199.019531 71.085938 195.371094 72 191.261719 72 Z M 173.320312 50.535156 L 191.261719 50.535156 L 191.261719 32.574219 C 187.917969 32.574219 184.726562 33.335938 182.140625 34.859375 C 179.402344 36.378906 177.273438 38.511719 175.753906 41.25 C 174.082031 43.992188 173.320312 47.035156 173.320312 50.535156 Z M 173.320312 50.535156 "/>
<path style=" stroke:none;fill-rule:nonzero;fill:rgb(5.882353%,5.882353%,5.882353%);fill-opacity:1;" d="M 237.792969 72 C 233.6875 72 230.039062 71.085938 226.84375 69.261719 C 223.652344 67.433594 221.066406 64.84375 219.242188 61.648438 C 217.417969 58.453125 216.503906 54.800781 216.503906 50.6875 C 216.503906 46.578125 217.417969 42.925781 219.242188 39.730469 C 221.066406 36.53125 223.652344 33.945312 226.84375 32.117188 C 230.039062 30.292969 233.6875 29.378906 237.792969 29.378906 C 241.898438 29.378906 245.550781 30.292969 248.742188 32.117188 C 251.933594 33.945312 254.519531 36.53125 256.34375 39.730469 C 258.167969 42.925781 259.082031 46.578125 259.082031 50.6875 C 259.082031 54.800781 258.167969 58.453125 256.34375 61.648438 C 254.519531 64.84375 251.933594 67.433594 248.742188 69.261719 C 245.550781 71.085938 241.898438 72 237.792969 72 Z M 219.699219 50.535156 L 237.640625 50.535156 L 237.640625 32.574219 C 234.296875 32.574219 231.101562 33.335938 228.519531 34.859375 C 225.78125 36.378906 223.652344 38.511719 222.132812 41.25 C 220.609375 43.992188 219.699219 47.035156 219.699219 50.535156 Z M 219.699219 50.535156 "/>
<path style=" stroke:none;fill-rule:nonzero;fill:rgb(5.882353%,5.882353%,5.882353%);fill-opacity:1;" d="M 279.003906 1.066406 L 273.222656 47.644531 L 289.796875 32.421875 L 302.113281 32.421875 L 281.433594 50.386719 L 298.007812 71.847656 L 286.757812 71.847656 L 272.464844 53.125 L 270.183594 71.847656 L 260.90625 71.847656 L 269.574219 1.066406 Z M 279.003906 1.066406 "/>
</g>
</svg>
